<svg width="131" height="44" viewBox="0 0 131 44" fill="none" xmlns="http://www.w3.org/2000/svg">
<rect x="1" y="0.5" width="129" height="42.3333" rx="6.5" fill="#0C0D10"/>
<rect x="1" y="0.5" width="129" height="42.3333" rx="6.5" stroke="#A6A6A6"/>
<path d="M88.8196 20.801V23.2829H87.2639V24.9106H88.8196V30.4409C88.8196 32.3294 89.6739 33.0847 91.8231 33.0847C92.2008 33.0847 92.5605 33.0398 92.8752 32.9858V31.3762C92.6054 31.4031 92.4346 31.4211 92.1378 31.4211C91.1756 31.4211 90.753 30.9715 90.753 29.9464V24.9106H92.8752V23.2829H90.753V20.801H88.8196Z" fill="white"/>
<path d="M98.3502 33.2196C101.21 33.2196 102.963 31.3042 102.963 28.1299C102.963 24.9735 101.201 23.0491 98.3502 23.0491C95.4906 23.0491 93.728 24.9735 93.728 28.1299C93.728 31.3042 95.4816 33.2196 98.3502 33.2196ZM98.3502 31.5021C96.6686 31.5021 95.7244 30.2701 95.7244 28.1299C95.7244 26.0076 96.6686 24.7667 98.3502 24.7667C100.023 24.7667 100.976 26.0076 100.976 28.1299C100.976 30.2611 100.023 31.5021 98.3502 31.5021Z" fill="white"/>
<path d="M104.464 33.0308H106.397V27.2486C106.397 25.8727 107.431 24.9465 108.897 24.9465C109.239 24.9465 109.814 25.0095 109.976 25.0634V23.157C109.769 23.1031 109.401 23.0761 109.113 23.0761C107.836 23.0761 106.748 23.7775 106.469 24.7397H106.325V23.2379H104.464V33.0308Z" fill="white"/>
<path d="M114.777 24.6947C116.206 24.6947 117.142 25.6929 117.187 27.2306H112.241C112.349 25.7019 113.347 24.6947 114.777 24.6947ZM117.178 30.387C116.818 31.1514 116.018 31.574 114.849 31.574C113.302 31.574 112.304 30.4859 112.241 28.7683V28.6604H119.156V27.986C119.156 24.9106 117.51 23.0491 114.786 23.0491C112.025 23.0491 110.271 25.0364 110.271 28.1658C110.271 31.2952 111.989 33.2196 114.795 33.2196C117.034 33.2196 118.598 32.1405 119.039 30.387H117.178Z" fill="white"/>
<path d="M76.1407 29.4144C76.2898 31.8191 78.2937 33.357 81.2763 33.357C84.4639 33.357 86.4585 31.7446 86.4585 29.1721C86.4585 27.1496 85.3214 26.0311 82.5625 25.388L81.0805 25.0245C79.3283 24.6144 78.6199 24.0645 78.6199 23.1045C78.6199 21.8928 79.7197 21.1006 81.3695 21.1006C82.9353 21.1006 84.0165 21.8742 84.2122 23.1138H86.2441C86.1229 20.8489 84.1283 19.2551 81.3974 19.2551C78.4615 19.2551 76.5042 20.8489 76.5042 23.2443C76.5042 25.2202 77.6133 26.3946 80.046 26.9632L81.7796 27.3826C83.5598 27.802 84.3427 28.4172 84.3427 29.4424C84.3427 30.6354 83.1124 31.5022 81.4347 31.5022C79.6359 31.5022 78.3869 30.6914 78.2098 29.4144H76.1407Z" fill="white"/>
<path d="M56.1127 23.0761C54.7819 23.0761 53.6308 23.7415 53.0373 24.8566H52.8934V23.2379H51.032V36.2861H52.9654V31.547H53.1182C53.6308 32.5812 54.7369 33.1927 56.1307 33.1927C58.6037 33.1927 60.1774 31.2413 60.1774 28.1299C60.1774 25.0185 58.6037 23.0761 56.1127 23.0761ZM55.5642 31.4571C53.9455 31.4571 52.9294 30.1802 52.9294 28.1389C52.9294 26.0886 53.9455 24.8116 55.5732 24.8116C57.2098 24.8116 58.19 26.0616 58.19 28.1299C58.19 30.2071 57.2098 31.4571 55.5642 31.4571Z" fill="white"/>
<path d="M66.9426 23.0761C65.6117 23.0761 64.4607 23.7415 63.8672 24.8566H63.7233V23.2379H61.8618V36.2861H63.7952V31.547H63.9481C64.4607 32.5812 65.5667 33.1927 66.9606 33.1927C69.4335 33.1927 71.0072 31.2413 71.0072 28.1299C71.0072 25.0185 69.4335 23.0761 66.9426 23.0761ZM66.3941 31.4571C64.7754 31.4571 63.7593 30.1802 63.7593 28.1389C63.7593 26.0886 64.7754 24.8116 66.4031 24.8116C68.0397 24.8116 69.0199 26.0616 69.0199 28.1299C69.0199 30.2071 68.0397 31.4571 66.3941 31.4571Z" fill="white"/>
<path d="M47.5631 33.0308H49.7814L44.9254 19.5813H42.6792L37.8232 33.0308H39.967L41.2066 29.461H46.3328L47.5631 33.0308ZM43.6951 22.0233H43.8536L45.8016 27.7088H41.7378L43.6951 22.0233Z" fill="white"/>
<path d="M39.1221 9.43691V15.925H41.4646C43.398 15.925 44.5176 14.7335 44.5176 12.6607C44.5176 10.6194 43.389 9.43691 41.4646 9.43691H39.1221ZM40.1292 10.3541H41.3522C42.6966 10.3541 43.4924 11.2084 43.4924 12.6742C43.4924 14.1625 42.7101 15.0078 41.3522 15.0078H40.1292V10.3541Z" fill="white"/>
<path d="M47.9464 16.0194C49.3762 16.0194 50.253 15.0617 50.253 13.4745C50.253 11.8964 49.3717 10.9342 47.9464 10.9342C46.5166 10.9342 45.6353 11.8964 45.6353 13.4745C45.6353 15.0617 46.5121 16.0194 47.9464 16.0194ZM47.9464 15.1606C47.1056 15.1606 46.6335 14.5447 46.6335 13.4745C46.6335 12.4134 47.1056 11.7929 47.9464 11.7929C48.7827 11.7929 49.2593 12.4134 49.2593 13.4745C49.2593 14.5402 48.7827 15.1606 47.9464 15.1606Z" fill="white"/>
<path d="M57.7195 11.0286H56.7528L55.8805 14.765H55.8041L54.7969 11.0286H53.8707L52.8635 14.765H52.7916L51.9148 11.0286H50.9346L52.2835 15.925H53.2772L54.2843 12.319H54.3608L55.3724 15.925H56.3751L57.7195 11.0286Z" fill="white"/>
<path d="M58.8328 15.925H59.7995V13.0609C59.7995 12.2965 60.2536 11.8199 60.9685 11.8199C61.6834 11.8199 62.0251 12.2111 62.0251 12.9979V15.925H62.9918V12.7551C62.9918 11.5906 62.3893 10.9342 61.2967 10.9342C60.5593 10.9342 60.0737 11.2624 59.8354 11.8064H59.7635V11.0286H58.8328V15.925Z" fill="white"/>
<path d="M64.5142 15.925H65.4809V9.11768H64.5142V15.925Z" fill="white"/>
<path d="M69.1166 16.0194C70.5464 16.0194 71.4232 15.0617 71.4232 13.4745C71.4232 11.8964 70.5419 10.9342 69.1166 10.9342C67.6868 10.9342 66.8055 11.8964 66.8055 13.4745C66.8055 15.0617 67.6823 16.0194 69.1166 16.0194ZM69.1166 15.1606C68.2758 15.1606 67.8037 14.5447 67.8037 13.4745C67.8037 12.4134 68.2758 11.7929 69.1166 11.7929C69.9529 11.7929 70.4295 12.4134 70.4295 13.4745C70.4295 14.5402 69.9529 15.1606 69.1166 15.1606Z" fill="white"/>
<path d="M74.3035 15.1921C73.7774 15.1921 73.3952 14.9358 73.3952 14.4952C73.3952 14.0636 73.701 13.8342 74.3754 13.7893L75.5714 13.7128V14.122C75.5714 14.729 75.0319 15.1921 74.3035 15.1921ZM74.0562 16.0059C74.6991 16.0059 75.2342 15.7272 75.5265 15.2371H75.6029V15.925H76.5336V12.5798C76.5336 11.5457 75.8412 10.9342 74.6137 10.9342C73.5031 10.9342 72.7118 11.4737 72.6129 12.3145H73.5481C73.656 11.9683 74.0292 11.7705 74.5688 11.7705C75.2297 11.7705 75.5714 12.0627 75.5714 12.5798V13.0024L74.245 13.0789C73.0805 13.1508 72.424 13.6589 72.424 14.5402C72.424 15.4349 73.112 16.0059 74.0562 16.0059Z" fill="white"/>
<path d="M79.8141 16.0059C80.4885 16.0059 81.0596 15.6867 81.3518 15.1517H81.4282V15.925H82.3545V9.11768H81.3878V11.8064H81.3158C81.0506 11.2669 80.484 10.9477 79.8141 10.9477C78.5776 10.9477 77.7818 11.9278 77.7818 13.4745C77.7818 15.0258 78.5686 16.0059 79.8141 16.0059ZM80.0884 11.8154C80.8977 11.8154 81.4058 12.4584 81.4058 13.479C81.4058 14.5042 80.9022 15.1382 80.0884 15.1382C79.27 15.1382 78.7799 14.5132 78.7799 13.4745C78.7799 12.4449 79.2745 11.8154 80.0884 11.8154Z" fill="white"/>
<path d="M88.6232 16.0194C90.053 16.0194 90.9297 15.0617 90.9297 13.4745C90.9297 11.8964 90.0485 10.9342 88.6232 10.9342C87.1933 10.9342 86.3121 11.8964 86.3121 13.4745C86.3121 15.0617 87.1889 16.0194 88.6232 16.0194ZM88.6232 15.1606C87.7824 15.1606 87.3102 14.5447 87.3102 13.4745C87.3102 12.4134 87.7824 11.7929 88.6232 11.7929C89.4595 11.7929 89.9361 12.4134 89.9361 13.4745C89.9361 14.5402 89.4595 15.1606 88.6232 15.1606Z" fill="white"/>
<path d="M92.2094 15.925H93.1761V13.0609C93.1761 12.2965 93.6302 11.8199 94.3451 11.8199C95.06 11.8199 95.4017 12.2111 95.4017 12.9979V15.925H96.3684V12.7551C96.3684 11.5906 95.7659 10.9342 94.6733 10.9342C93.9359 10.9342 93.4503 11.2624 93.212 11.8064H93.1401V11.0286H92.2094V15.925Z" fill="white"/>
<path d="M100.821 9.8101V11.0511H100.043V11.8649H100.821V14.6301C100.821 15.5743 101.248 15.952 102.322 15.952C102.511 15.952 102.691 15.9295 102.848 15.9025V15.0977C102.714 15.1112 102.628 15.1202 102.48 15.1202C101.999 15.1202 101.787 14.8954 101.787 14.3828V11.8649H102.848V11.0511H101.787V9.8101H100.821Z" fill="white"/>
<path d="M104.146 15.925H105.113V13.0654C105.113 12.3235 105.553 11.8244 106.345 11.8244C107.028 11.8244 107.392 12.2201 107.392 13.0024V15.925H108.359V12.7641C108.359 11.5996 107.716 10.9387 106.673 10.9387C105.936 10.9387 105.418 11.2669 105.18 11.8154H105.104V9.11768H104.146V15.925Z" fill="white"/>
<path d="M111.846 11.757C112.561 11.757 113.029 12.2561 113.051 13.0249H110.578C110.632 12.2606 111.131 11.757 111.846 11.757ZM113.047 14.6031C112.867 14.9853 112.467 15.1966 111.882 15.1966C111.109 15.1966 110.61 14.6526 110.578 13.7938V13.7398H114.036V13.4026C114.036 11.8649 113.213 10.9342 111.851 10.9342C110.47 10.9342 109.594 11.9278 109.594 13.4925C109.594 15.0572 110.452 16.0194 111.855 16.0194C112.975 16.0194 113.757 15.4799 113.978 14.6031H113.047Z" fill="white"/>
<path d="M27.3332 21.9927C27.3566 20.1716 28.3346 18.4484 29.8861 17.4946C28.9073 16.0967 27.268 15.2105 25.5623 15.1571C23.7432 14.9662 21.9796 16.2457 21.0525 16.2457C20.1076 16.2457 18.6803 15.1761 17.1433 15.2077C15.14 15.2724 13.2723 16.4114 12.2977 18.1629C10.2025 21.7903 11.7653 27.1215 13.7723 30.0536C14.7764 31.4894 15.95 33.0932 17.4856 33.0364C18.9882 32.974 19.5494 32.0782 21.3632 32.0782C23.1602 32.0782 23.6868 33.0364 25.2535 33.0002C26.8659 32.974 27.8818 31.558 28.8507 30.1086C29.5722 29.0856 30.1274 27.9549 30.4957 26.7584C28.6008 25.957 27.3354 24.0501 27.3332 21.9927Z" fill="white"/>
<path d="M24.3739 13.2288C25.253 12.1734 25.6861 10.8169 25.5813 9.44727C24.2381 9.58834 22.9974 10.2303 22.1064 11.2452C21.2351 12.2368 20.7816 13.5694 20.8674 14.8867C22.211 14.9005 23.5319 14.276 24.3739 13.2288Z" fill="white"/>
</svg>
