<svg width="16" height="16" viewBox="0 0 16 16" fill="none" xmlns="http://www.w3.org/2000/svg">
<path fill-rule="evenodd" clip-rule="evenodd" d="M3.99993 2C3.99993 1.84221 4.12785 1.71429 4.28564 1.71429H11.7142C11.872 1.71429 11.9999 1.84221 11.9999 2V14C11.9999 14.1578 11.872 14.2857 11.7142 14.2857H4.34492C4.33922 14.2833 4.33263 14.2805 4.32522 14.277C4.27251 14.2522 4.20492 14.2106 4.14083 14.1559C4.07615 14.1008 4.03417 14.0488 4.01223 14.0114C4.00548 13.9999 4.00182 13.9919 3.99993 13.9872V2ZM4.28564 0C3.18107 0 2.28564 0.895431 2.28564 2V14C2.28564 14.6765 2.69851 15.179 3.0285 15.4603C3.20694 15.6125 3.40346 15.7382 3.59744 15.8291C3.77385 15.9119 4.02025 16 4.28564 16H11.7142C12.8188 16 13.7142 15.1046 13.7142 14V2C13.7142 0.895431 12.8188 0 11.7142 0H4.28564ZM7.4285 11.1429C6.95512 11.1429 6.57136 11.5266 6.57136 12C6.57136 12.4734 6.95512 12.8571 7.4285 12.8571H8.57136C9.04474 12.8571 9.4285 12.4734 9.4285 12C9.4285 11.5266 9.04474 11.1429 8.57136 11.1429H7.4285Z" fill="black"/>
</svg>
