<svg width="146" height="44" viewBox="0 0 146 44" fill="none" xmlns="http://www.w3.org/2000/svg">
<rect x="1" y="0.685303" width="144" height="41.963" rx="4.5" fill="black"/>
<rect x="1" y="0.685303" width="144" height="41.963" rx="4.5" stroke="#A6A6A6"/>
<path d="M115.356 32.4075H117.36V18.9799H115.356V32.4075ZM133.408 23.8171L131.11 29.6385H131.042L128.657 23.8171H126.498L130.075 31.9532L128.035 36.4794H130.125L135.636 23.8171H133.408ZM122.041 30.8825C121.386 30.8825 120.469 30.5539 120.469 29.7421C120.469 28.7057 121.61 28.3084 122.594 28.3084C123.475 28.3084 123.89 28.4981 124.425 28.7574C124.27 30.0014 123.199 30.8825 122.041 30.8825ZM122.284 23.5233C120.832 23.5233 119.33 24.1627 118.708 25.5792L120.487 26.3218C120.867 25.5792 121.575 25.3375 122.318 25.3375C123.354 25.3375 124.408 25.9589 124.425 27.0649V27.2029C124.062 26.9956 123.285 26.6848 122.335 26.6848C120.417 26.6848 118.465 27.7382 118.465 29.7076C118.465 31.5042 120.038 32.6618 121.799 32.6618C123.146 32.6618 123.89 32.0572 124.355 31.3486H124.425V32.3857H126.361V27.2373C126.361 24.8534 124.58 23.5233 122.284 23.5233ZM109.897 25.4516H107.047V20.8491H109.897C111.396 20.8491 112.246 22.0893 112.246 23.1503C112.246 24.1909 111.396 25.4516 109.897 25.4516ZM109.846 18.9799H105.043V32.4075H107.047V27.3204H109.846C112.067 27.3204 114.251 25.7126 114.251 23.1503C114.251 20.5885 112.067 18.9799 109.846 18.9799ZM83.6583 30.8849C82.2737 30.8849 81.1149 29.7252 81.1149 28.1339C81.1149 26.5241 82.2737 25.348 83.6583 25.348C85.0253 25.348 86.0981 26.5241 86.0981 28.1339C86.0981 29.7252 85.0253 30.8849 83.6583 30.8849ZM85.9596 24.5689H85.8904C85.4406 24.0327 84.5751 23.5481 83.4855 23.5481C81.201 23.5481 79.1074 25.5557 79.1074 28.1339C79.1074 30.6945 81.201 32.6844 83.4855 32.6844C84.5751 32.6844 85.4406 32.1998 85.8904 31.6464H85.9596V32.3035C85.9596 34.0518 85.0253 34.9857 83.5199 34.9857C82.2918 34.9857 81.5304 34.1034 81.2186 33.3595L79.4712 34.0862C79.9725 35.297 81.3046 36.7856 83.5199 36.7856C85.8736 36.7856 87.8635 35.4011 87.8635 32.0266V23.825H85.9596V24.5689ZM89.2481 32.4075H91.2545V18.9799H89.2481V32.4075ZM94.2137 27.9778C94.162 26.2127 95.5814 25.3132 96.6018 25.3132C97.3981 25.3132 98.0723 25.7113 98.2981 26.282L94.2137 27.9778ZM100.443 26.4548C100.062 25.4344 98.9031 23.5481 96.5325 23.5481C94.1788 23.5481 92.2236 25.3996 92.2236 28.1163C92.2236 30.6773 94.162 32.6844 96.757 32.6844C98.8506 32.6844 100.062 31.4044 100.564 30.66L99.0071 29.6216C98.4878 30.3831 97.7786 30.8849 96.757 30.8849C95.7366 30.8849 95.0096 30.4176 94.543 29.5004L100.651 26.9742L100.443 26.4548ZM51.779 24.9498V26.8878H56.4163C56.2778 27.9778 55.9145 28.7737 55.3607 29.3275C54.6856 30.0021 53.63 30.7465 51.779 30.7465C48.9237 30.7465 46.6917 28.4452 46.6917 25.5901C46.6917 22.735 48.9237 20.4333 51.779 20.4333C53.3191 20.4333 54.4435 21.0391 55.2742 21.8178L56.6416 20.4505C55.4819 19.3432 53.9421 18.4954 51.779 18.4954C47.8677 18.4954 44.5801 21.6794 44.5801 25.5901C44.5801 29.5004 47.8677 32.6844 51.779 32.6844C53.8897 32.6844 55.4819 31.9922 56.7276 30.6945C58.0082 29.414 58.4063 27.6145 58.4063 26.1607C58.4063 25.7113 58.3714 25.296 58.3022 24.9498H51.779ZM63.6785 30.8849C62.2939 30.8849 61.0999 29.7429 61.0999 28.1163C61.0999 26.4724 62.2939 25.348 63.6785 25.348C65.0626 25.348 66.2566 26.4724 66.2566 28.1163C66.2566 29.7429 65.0626 30.8849 63.6785 30.8849ZM63.6785 23.5481C61.1514 23.5481 59.0926 25.4688 59.0926 28.1163C59.0926 30.7465 61.1514 32.6844 63.6785 32.6844C66.2046 32.6844 68.2638 30.7465 68.2638 28.1163C68.2638 25.4688 66.2046 23.5481 63.6785 23.5481ZM73.6811 30.8849C72.2975 30.8849 71.103 29.7429 71.103 28.1163C71.103 26.4724 72.2975 25.348 73.6811 25.348C75.0657 25.348 76.2594 26.4724 76.2594 28.1163C76.2594 29.7429 75.0657 30.8849 73.6811 30.8849ZM73.6811 23.5481C71.155 23.5481 69.0963 25.4688 69.0963 28.1163C69.0963 30.7465 71.155 32.6844 73.6811 32.6844C76.2082 32.6844 78.267 30.7465 78.267 28.1163C78.267 25.4688 76.2082 23.5481 73.6811 23.5481Z" fill="white"/>
<path d="M48.2717 14.3999C47.3088 14.3999 46.4805 14.0611 45.8127 13.3934C45.1445 12.7252 44.8062 11.8886 44.8062 10.9159C44.8062 9.94309 45.1447 9.10799 45.8127 8.43836C46.4805 7.77056 47.3088 7.43184 48.2717 7.43184C48.7623 7.43184 49.2202 7.51658 49.6577 7.69302C50.0955 7.86948 50.4536 8.11444 50.7356 8.43501L50.8021 8.51074L50.0509 9.26175L49.9758 9.16945C49.7888 8.93966 49.5509 8.76113 49.2495 8.63136C48.9492 8.50192 48.6203 8.44214 48.2717 8.44214C47.5935 8.44214 47.0307 8.67247 46.5608 9.14071C46.5606 9.14082 46.5604 9.14081 46.5603 9.14093C46.1011 9.61861 45.8701 10.2002 45.8701 10.9159C45.8701 11.6321 46.1013 12.2138 46.5612 12.6917C47.0311 13.1597 47.5938 13.3913 48.2717 13.3913C48.8926 13.3913 49.4061 13.218 49.8098 12.8748H49.81C50.1859 12.5554 50.4114 12.1239 50.4912 11.5737H48.1643V10.5836H51.4969L51.5111 10.6742C51.5384 10.8483 51.5577 11.0163 51.5577 11.1777C51.5577 12.1016 51.276 12.8557 50.7234 13.4106C50.0996 14.0719 49.2792 14.3999 48.2717 14.3999L48.2717 14.3999ZM77.2092 14.3999C76.2448 14.3999 75.4262 14.0609 74.7669 13.3934C74.7669 13.3933 74.7668 13.3933 74.7667 13.3932C74.7667 13.3931 74.7666 13.393 74.7665 13.3929C74.1064 12.7326 73.7789 11.8958 73.7789 10.9159C73.7789 9.93589 74.1064 9.09911 74.7665 8.43878C74.7666 8.4387 74.7666 8.43867 74.7667 8.43856L74.7669 8.43835C75.4262 7.7707 76.2448 7.43182 77.2092 7.43182C78.1717 7.43182 78.9906 7.77079 79.6498 8.44841C80.3101 9.10865 80.6379 9.94383 80.6379 10.9158C80.6379 11.8958 80.3103 12.7326 79.6502 13.3929L79.65 13.3931C78.9904 14.0612 78.1639 14.3999 77.2092 14.3999L77.2092 14.3999ZM52.5114 14.2556V7.57617H52.6188H56.5006V8.58647H53.5569V10.4208H56.2119V11.4109H53.5569V13.2469H56.5006V14.2556H52.5114ZM58.942 14.2556V8.58647H57.1362V7.57617H61.7933V8.58647H61.6859H59.9875V14.2556H58.942ZM64.7697 14.2556V7.57617H65.8152V7.68358V14.2556H64.7697ZM68.4471 14.2556V8.58647H66.6413V7.57617H71.2984V8.58647H71.191H69.4927V14.2556H68.4471ZM81.5659 14.2556V7.57617H82.7449L85.7454 12.3797L85.7196 11.4678V7.57617H86.7651V14.2556H85.7305L82.5857 9.20931L82.6115 10.1206V10.1221V14.2556H81.5659ZM77.2092 13.3913C77.8875 13.3913 78.4411 13.1599 78.8925 12.6925L78.8931 12.6916L78.8938 12.691C79.3516 12.2331 79.5756 11.6437 79.5756 10.9158C79.5756 10.1898 79.3514 9.59835 78.8938 9.14068L78.8931 9.14003L78.8925 9.13938C78.4412 8.67203 77.8876 8.44208 77.2092 8.44208C76.5297 8.44208 75.9761 8.67162 75.5163 9.13897L75.5159 9.13939C75.0666 9.60818 74.8429 10.19 74.8429 10.9158C74.8429 11.6434 75.0665 12.2234 75.5159 12.6922L75.5163 12.6927C75.9762 13.1601 76.5298 13.3912 77.2092 13.3912V13.3913Z" fill="white"/>
<path d="M22.7491 21.0473L11.314 33.1843C11.3144 33.1868 11.3153 33.1889 11.3157 33.1915C11.6664 34.5093 12.8701 35.4797 14.2987 35.4797C14.8698 35.4797 15.406 35.3253 15.8658 35.0543L15.9023 35.0329L28.774 27.6055L22.7491 21.0473Z" fill="#EA4335"/>
<path d="M34.3179 18.9806L34.307 18.9731L28.7499 15.7516L22.4893 21.3226L28.7717 27.6042L34.2995 24.4148C35.2686 23.8916 35.9265 22.8699 35.9265 21.6918C35.9265 20.5221 35.2774 19.5055 34.3179 18.9806Z" fill="#FBBC04"/>
<path d="M11.3134 10.1487C11.2446 10.4022 11.2085 10.6677 11.2085 10.9435V32.3901C11.2085 32.6653 11.2442 32.9317 11.3138 33.1843L23.1425 21.3578L11.3134 10.1487Z" fill="#4285F4"/>
<path d="M22.8334 21.6667L28.7521 15.7497L15.895 8.29538C15.4277 8.01548 14.8823 7.85394 14.2987 7.85394C12.87 7.85394 11.6647 8.82609 11.3139 10.1456C11.3135 10.1469 11.3135 10.1477 11.3135 10.1489L22.8334 21.6667Z" fill="#34A853"/>
</svg>
